HIERARCHY
ROOT Hips
{
 OFFSET 0.000000 0.000000 0.000000
 CHANNELS 6 Xposition Yposition Zposition Yrotation Xrotation Zrotation
 JOINT Chest
 {
  OFFSET 0.000000 9.585900 0.002600
  CHANNELS 3 Yrotation Xrotation Zrotation
  JOINT Chest2
  {
   OFFSET 0.000000 9.601200 -0.005300
   CHANNELS 3 Yrotation Xrotation Zrotation
   JOINT Chest3
   {
    OFFSET 0.000000 9.561800 0.000000
    CHANNELS 3 Yrotation Xrotation Zrotation
    JOINT Chest4
    {
     OFFSET 0.000000 9.552100 0.000000
     CHANNELS 3 Yrotation Xrotation Zrotation
     JOINT Neck
     {
      OFFSET 0.000000 14.453000 0.000000
      CHANNELS 3 Yrotation Xrotation Zrotation
      JOINT Head
      {
       OFFSET 0.000000 8.936500 -0.011300
       CHANNELS 3 Yrotation Xrotation Zrotation
       End Site
       {
        OFFSET 0.000000 17.073600 -0.006000
       }
      }
     }
     JOINT RightCollar
     {
      OFFSET -2.921100 9.558500 0.000000
      CHANNELS 3 Yrotation Xrotation Zrotation
      JOINT RightShoulder
      {
       OFFSET -13.519700 0.000000 0.000000
       CHANNELS 3 Yrotation Xrotation Zrotation
       JOINT RightElbow
       {
        OFFSET 0.000000 -29.696600 0.000000
        CHANNELS 3 Yrotation Xrotation Zrotation
        JOINT RightWrist
        {
         OFFSET 0.000000 -24.004700 0.000000
         CHANNELS 3 Yrotation Xrotation Zrotation
         End Site
         {
          OFFSET 0.000000 -17.728500 0.000000
         }
        }
       }
      }
     }
     JOINT LeftCollar
     {
      OFFSET 2.921100 9.558500 0.000000
      CHANNELS 3 Yrotation Xrotation Zrotation
      JOINT LeftShoulder
      {
       OFFSET 13.519700 0.000000 0.000000
       CHANNELS 3 Yrotation Xrotation Zrotation
       JOINT LeftElbow
       {
        OFFSET 0.000000 -29.696600 0.000000
        CHANNELS 3 Yrotation Xrotation Zrotation
        JOINT LeftWrist
        {
         OFFSET 0.000000 -24.004700 0.000000
         CHANNELS 3 Yrotation Xrotation Zrotation
         End Site
         {
          OFFSET 0.000000 -17.728500 0.000000
         }
        }
       }
      }
     }
    }
   }
  }
 }
 JOINT RightHip
 {
  OFFSET -7.771700 -0.012900 -0.001300
  CHANNELS 3 Yrotation Xrotation Zrotation
  JOINT RightKnee
  {
   OFFSET 0.000000 -40.869800 0.001200
   CHANNELS 3 Yrotation Xrotation Zrotation
   JOINT RightAnkle
   {
    OFFSET 0.000000 -39.717900 0.002100
    CHANNELS 3 Yrotation Xrotation Zrotation
    JOINT RightToe
    {
     OFFSET 0.000000 -4.965400 11.033500
     CHANNELS 3 Yrotation Xrotation Zrotation
     End Site
     {
      OFFSET 0.000000 -1.423100 5.872300
     }
    }
   }
  }
 }
 JOINT LeftHip
 {
  OFFSET 7.771700 -0.012900 -0.001300
  CHANNELS 3 Yrotation Xrotation Zrotation
  JOINT LeftKnee
  {
   OFFSET 0.000000 -40.869800 0.001200
   CHANNELS 3 Yrotation Xrotation Zrotation
   JOINT LeftAnkle
   {
    OFFSET 0.000000 -39.717900 0.002100
    CHANNELS 3 Yrotation Xrotation Zrotation
    JOINT LeftToe
    {
     OFFSET 0.000000 -4.965400 11.033500
     CHANNELS 3 Yrotation Xrotation Zrotation
     End Site
     {
      OFFSET 0.000000 -1.423100 5.872300
     }
    }
   }
  }
 }
}
MOTION
Frames: 9
Frame Time: 0.008333
-22.014177 57.614732 76.287142 174.364572 -33.181264 -2.975779 3.415987 21.397038 5.162248 0.340745 2.999646 0.435237 0.557302 4.842123 0.711698 2.528828 18.388425 3.048995 0.848507 14.119988 -2.200179 2.443888 -9.471634 -4.453097 2.936760 -2.555159 -0.303983 2.812648 -20.453112 -15.554151 1.755453 -5.204488 5.862794 -0.897918 -1.316135 -27.327551 -8.351642 -4.129114 -4.731281 2.718147 -20.173911 -2.128673 6.657953 -2.503305 5.837649 6.279228 -1.976110 12.493585 9.072195 -39.697998 -2.090995 -3.657227 65.534083 -3.972426 5.943301 15.095122 9.166695 -0.055902 -8.733524 0.151938 -8.149219 -44.530969 7.265227 27.121055 58.014141 25.523658 -13.661696 42.098877 2.778551 0.310641 -19.926325 -7.985587
-22.016715 57.611925 76.288617 174.365353 -33.182313 -2.979017 3.413500 21.391372 5.162767 0.338398 2.990949 0.433581 0.558709 4.836819 0.713197 2.520177 18.357350 3.046664 0.857182 14.135793 -2.209443 2.454694 -9.465189 -4.465367 2.936778 -2.505885 -0.298108 2.821186 -20.453641 -15.552028 1.742586 -5.213929 5.856196 -0.894967 -1.316882 -27.318107 -8.345433 -4.088436 -4.740571 2.721502 -20.163552 -2.130137 6.660897 -2.512487 5.838512 6.273319 -1.966659 12.490879 9.078535 -39.698603 -2.091713 -3.663060 65.533045 -3.974561 5.943265 15.101485 9.168803 -0.055441 -8.737754 0.153056 -8.147256 -44.531359 7.263121 27.135335 58.005523 25.537428 -13.674740 42.113427 2.781525 0.317051 -19.954657 -7.989655
-22.019377 57.609120 76.290157 174.371822 -33.183568 -2.985982 3.406088 21.378631 5.164361 0.337571 2.988226 0.433541 0.560360 4.842964 0.713825 2.516740 18.335060 3.047944 0.859485 14.125709 -2.220863 2.473904 -9.496018 -4.510043 2.928146 -2.478190 -0.292601 2.825181 -20.453780 -15.550381 1.735189 -5.220572 5.847372 -0.891143 -1.317054 -27.313784 -8.340777 -4.065454 -4.750326 2.719036 -20.155510 -2.128387 6.667604 -2.523212 5.836329 6.264648 -1.950931 12.472396 9.081722 -39.697743 -2.093651 -3.664115 65.531553 -3.970666 5.944187 15.106245 9.172189 -0.057032 -8.741267 0.153627 -8.152958 -44.530846 7.263345 27.144082 57.995226 25.547403 -13.699477 42.135766 2.772810 0.332179 -19.994598 -7.993848
-22.022320 57.606187 76.291876 174.382528 -33.184039 -2.994048 3.394298 21.347571 5.164475 0.338528 3.003683 0.433900 0.559769 4.848402 0.714532 2.508924 18.305826 3.049369 0.862619 14.122619 -2.230751 2.483818 -9.501185 -4.530014 2.913435 -2.450149 -0.292866 2.821903 -20.455948 -15.531381 1.738452 -5.231011 5.824080 -0.887059 -1.308967 -27.303034 -8.329885 -4.033274 -4.764287 2.713084 -20.148536 -2.123318 6.671461 -2.527333 5.835928 6.267846 -1.944101 12.454124 9.079974 -39.697083 -2.096626 -3.663467 65.530778 -3.965650 5.943296 15.108134 9.175741 -0.056872 -8.742369 0.152469 -8.160938 -44.531581 7.261961 27.145219 57.986907 25.549814 -13.717094 42.158793 2.770320 0.351494 -20.041062 -8.003327
-22.025026 57.603683 76.293025 174.383356 -33.190051 -2.997052 3.388978 21.333946 5.165899 0.341743 3.000613 0.432778 0.558425 4.841578 0.714722 2.497445 18.290842 3.050846 0.866680 14.118146 -2.241891 2.495901 -9.508727 -4.552729 2.910577 -2.410563 -0.293521 2.821088 -20.457878 -15.522826 1.742342 -5.232398 5.815356 -0.901106 -1.323193 -27.301527 -8.314041 -3.997255 -4.783743 2.707066 -20.139431 -2.115184 6.675242 -2.534074 5.837521 6.266716 -1.937808 12.446912 9.092877 -39.690654 -2.102518 -3.666518 65.529259 -3.958063 5.937072 15.106965 9.177399 -0.057335 -8.739591 0.151692 -8.156557 -44.528102 7.254549 27.148179 57.982507 25.557378 -13.709371 42.175856 2.780577 0.352590 -20.066807 -8.008954
-22.027315 57.601397 76.293976 174.379933 -33.198801 -2.998235 3.388053 21.323336 5.167691 0.336704 2.993389 0.434339 0.550902 4.802670 0.712713 2.505460 18.333977 3.052123 0.867560 14.102545 -2.250715 2.506892 -9.535623 -4.580237 2.911601 -2.389731 -0.293288 2.807474 -20.463388 -15.513191 1.703877 -5.254040 5.794158 -0.856317 -1.299347 -27.280781 -8.303987 -3.983566 -4.800004 2.704654 -20.131467 -2.111090 6.709295 -2.550922 5.842601 6.233350 -1.923164 12.440452 9.099702 -39.682391 -2.101202 -3.668695 65.527609 -3.956269 5.935944 15.106633 9.176260 -0.058024 -8.737723 0.154222 -8.151741 -44.522871 7.249218 27.155132 57.980215 25.565835 -13.689053 42.195978 2.798787 0.346081 -20.096982 -8.013496
-22.029361 57.598154 76.296513 174.384853 -33.196777 -3.003512 3.380214 21.303137 5.168017 0.336324 2.988689 0.433860 0.549626 4.795830 0.712811 2.504546 18.342657 3.052642 0.870465 14.111428 -2.253305 2.511574 -9.557678 -4.595870 2.901671 -2.376523 -0.289385 2.804393 -20.460358 -15.505386 1.698704 -5.263244 5.784571 -0.887180 -1.324984 -27.277987 -8.298137 -3.966477 -4.808677 2.700298 -20.128151 -2.111539 6.723789 -2.553321 5.846415 6.264381 -1.915769 12.425566 9.100227 -39.684868 -2.103865 -3.670647 65.525385 -3.953753 5.941435 15.107381 9.178731 -0.058058 -8.736620 0.153507 -8.160789 -44.525074 7.253367 27.157936 57.973334 25.567464 -13.700163 42.209879 2.787067 0.361769 -20.157192 -8.012335
-22.029249 57.594941 76.299479 174.388570 -33.194138 -3.017723 3.376458 21.282826 5.178317 0.332305 2.961099 0.432916 0.552322 4.812388 0.713314 2.498968 18.299545 3.053217 0.875501 14.130004 -2.265838 2.516119 -9.541949 -4.601532 2.890704 -2.316046 -0.278757 2.794529 -20.455560 -15.499095 1.719722 -5.267338 5.778856 -0.894330 -1.328427 -27.275513 -8.290115 -3.899333 -4.826904 2.710547 -20.126337 -2.113643 6.726661 -2.553852 5.846163 6.263768 -1.917061 12.427598 9.094331 -39.688337 -2.091555 -3.680038 65.519802 -3.957805 5.943698 15.110633 9.176739 -0.058088 -8.735351 0.155906 -8.181076 -44.526644 7.271150 27.159524 57.967172 25.577870 -13.737042 42.215356 2.742779 0.381154 -20.183907 -8.002225
-22.027714 57.592087 76.302217 174.389063 -33.194718 -3.034814 3.377039 21.266683 5.194127 0.333919 2.966751 0.432749 0.552005 4.809125 0.713108 2.499795 18.303224 3.053797 0.873758 14.020801 -2.296103 2.534235 -9.595370 -4.647608 2.853526 -2.315896 -0.271529 2.797646 -20.452380 -15.488226 1.717026 -5.279672 5.767305 -0.872646 -1.322182 -27.262558 -8.276142 -3.886840 -4.844464 2.713684 -20.123803 -2.108552 6.743333 -2.563969 5.843366 6.273367 -1.919742 12.426276 9.086434 -39.689318 -2.070237 -3.688351 65.512994 -3.961873 5.941537 15.117123 9.175621 -0.057252 -8.735985 0.156916 -8.210237 -44.527041 7.303992 27.167080 57.970778 25.582477 -13.752798 42.215792 2.723728 0.387955 -20.197019 -7.997374
